<svg xmlns="http://www.w3.org/2000/svg" width="18" height="18" fill="none"><path stroke="#9592A6" stroke-linecap="round" stroke-linejoin="round" stroke-width="1.25" d="m12.355 4.056 1.589 1.588-1.589-1.588Zm1.022-1.399L9.082 6.952a1.589 1.589 0 0 0-.435.812L8.25 9.75l1.986-.398c.307-.061.59-.212.811-.434l4.296-4.295a1.39 1.39 0 1 0-1.966-1.966v0Z"/><path stroke="#9592A6" stroke-linecap="round" stroke-linejoin="round" stroke-width="1.25" d="M14.25 11.25v2.25a1.5 1.5 0 0 1-1.5 1.5H4.5A1.5 1.5 0 0 1 3 13.5V5.25a1.5 1.5 0 0 1 1.5-1.5h2.25"/></svg>