<svg xmlns="http://www.w3.org/2000/svg" width="17" height="16" fill="none"><g fill="#C0BEFF" stroke="#C0BEFF" stroke-width=".15" clip-path="url(#a)"><path d="M6.504 7.575A2.828 2.828 0 0 0 9.33 4.75a2.824 2.824 0 0 0-2.827-2.825A2.828 2.828 0 0 0 3.677 4.75a2.824 2.824 0 0 0 2.827 2.825Zm1.76-2.825a1.758 1.758 0 0 1-1.76 1.758 1.76 1.76 0 0 1-1.76-1.758 1.758 1.758 0 0 1 1.76-1.758 1.76 1.76 0 0 1 1.76 1.758ZM11.09 13v.075h.014l.031-.002a1.205 1.205 0 0 0 .447-.12.88.88 0 0 0 .345-.298c.095-.143.156-.33.156-.572 0-.477-.237-1.413-1.054-2.23-.82-.819-2.216-1.511-4.525-1.511-2.31 0-3.706.692-4.525 1.511-.817.817-1.054 1.753-1.054 2.23 0 .243.06.43.156.572a.88.88 0 0 0 .344.298 1.205 1.205 0 0 0 .48.122h.012V13v.075h9.173V13Zm-.816-2.393c.547.546.709 1.135.737 1.398H1.997c.028-.264.19-.852.737-1.398.58-.58 1.685-1.199 3.77-1.199 2.084 0 3.189.618 3.77 1.2ZM11.468 6.206l.998.998 2.375-2.373-3.373 1.375Zm0 0a.534.534 0 0 0-.755.755l1.376 1.375-.62-2.13Zm4.128-1.375a.533.533 0 0 1 0 .755l-.053-.053.053.053-2.752 2.75-.053-.053a.458.458 0 0 1-.5.1l3.305-3.552Zm0 0-.053.053m.053-.053-.053.053m0 0 .053-.053a.534.534 0 0 0-.755 0l.702.053Z"/></g><defs><clipPath id="a"><path fill="#fff" d="M.031 0h16.011v16H.032z"/></clipPath></defs></svg>