<svg xmlns="http://www.w3.org/2000/svg" width="19" height="18" fill="none"><path fill="#C0BEFF" d="M9.537 10.5a.751.751 0 1 0 0-1.502.751.751 0 0 0 0 1.502Zm3.753 0a.75.75 0 1 0 0-1.502.75.75 0 0 0 0 1.502Zm-3.753 3a.751.751 0 1 0 0-1.502.751.751 0 0 0 0 1.502Zm3.753 0a.75.75 0 1 0 0-1.502.75.75 0 0 0 0 1.502Zm-7.505-3a.751.751 0 1 0 0-1.502.751.751 0 0 0 0 1.502ZM14.79 3h-.75v-.75a.75.75 0 0 0-1.502 0V3H6.535v-.75a.75.75 0 0 0-1.501 0V3h-.75a2.252 2.252 0 0 0-2.252 2.25v9a2.25 2.25 0 0 0 2.251 2.25h10.508a2.253 2.253 0 0 0 2.251-2.25v-9A2.25 2.25 0 0 0 14.791 3Zm.75 11.25a.75.75 0 0 1-.75.75H4.283a.75.75 0 0 1-.75-.75V7.5h12.008v6.75Zm0-8.25H3.533v-.75a.75.75 0 0 1 .75-.75h10.508a.751.751 0 0 1 .75.75V6Zm-9.756 7.5a.751.751 0 1 0 0-1.502.751.751 0 0 0 0 1.502Z"/></svg>