<svg xmlns="http://www.w3.org/2000/svg" width="24" height="23" fill="none"><path fill="#C0BEFF" d="M16.572 1.917a2.64 2.64 0 0 1 2.637 2.635v13.896a2.633 2.633 0 0 1-2.637 2.635H6.502a2.639 2.639 0 0 1-2.637-2.636V4.552c0-1.207.812-2.223 1.918-2.537v1.579c-.291.218-.48.565-.48.958v13.894c0 .661.538 1.198 1.2 1.198h10.069c.662 0 1.199-.537 1.199-1.198V4.552c0-.661-.537-1.198-1.199-1.198h-2.158V1.917h2.158Zm-3.117 0v7.8c0 .715-.767.984-1.237.732l-.079-.05-2.038-1.232-1.993 1.2c-.48.344-1.276.133-1.359-.535l-.007-.114V1.917h6.713Zm-1.438 1.437H8.18v5.293l1.508-.91a.886.886 0 0 1 .785-.022l1.544.933V3.354h-.001Z"/></svg>