<svg xmlns="http://www.w3.org/2000/svg" width="28" height="37" fill="none"><path fill="url(#a)" d="M23.144 7.245a4.075 4.075 0 0 0-4.069 4.067v10.13a5.462 5.462 0 0 1-3.355 5.127 5.471 5.471 0 0 1-7.581-5.127v-10.13a4.065 4.065 0 0 0-4.07-4.066A4.07 4.07 0 0 0 0 11.312v11.203a13.59 13.59 0 0 0 3.985 9.615 13.61 13.61 0 0 0 14.829 2.947 13.608 13.608 0 0 0 7.364-7.359 13.589 13.589 0 0 0 1.036-5.203V11.312a4.07 4.07 0 0 0-4.07-4.067Zm2.29 15.269c0 3.134-1.247 6.14-3.465 8.357a11.831 11.831 0 0 1-16.725 0 11.814 11.814 0 0 1-3.464-8.357V11.312a2.287 2.287 0 0 1 2.29-2.267 2.29 2.29 0 0 1 2.288 2.267v10.13a7.24 7.24 0 0 0 2.123 5.122 7.25 7.25 0 0 0 12.374-5.122v-10.13a2.286 2.286 0 0 1 2.29-2.287 2.29 2.29 0 0 1 2.288 2.287v11.202Z"/><path fill="url(#b)" d="M12.717 9.319v11.727a.89.89 0 0 0 1.78 0V9.32a4.706 4.706 0 0 0 3.794-5.064A4.7 4.7 0 0 0 13.607 0a4.707 4.707 0 0 0-4.684 4.255 4.7 4.7 0 0 0 3.794 5.064Zm.89-7.538a2.926 2.926 0 0 1 2.869 3.493 2.922 2.922 0 0 1-3.988 2.13 2.925 2.925 0 0 1-1.806-2.7 2.925 2.925 0 0 1 2.925-2.923Z"/><defs><linearGradient id="a" x1="0" x2="27.214" y1="21.679" y2="21.679" gradientUnits="userSpaceOnUse"><stop stop-color="#EC441E"/><stop offset="1" stop-color="#EE2A4A"/></linearGradient><linearGradient id="b" x1="8.902" x2="18.312" y1="10.968" y2="10.968" gradientUnits="userSpaceOnUse"><stop stop-color="#EC441E"/><stop offset="1" stop-color="#EE2A4A"/></linearGradient></defs></svg>