<svg xmlns="http://www.w3.org/2000/svg" width="19" height="18" fill="none"><path stroke="#C0BEFF" stroke-linejoin="round" stroke-width="1.25" d="M12.402 9.16v6.043c0 .854-.67 1.547-1.511 1.547H4.345c-.842 0-1.512-.693-1.512-1.547V5.922A1.555 1.555 0 0 1 4.38 4.375h3.31a.864.864 0 0 1 .616.259l3.84 3.902a.893.893 0 0 1 .255.625Z"/><path stroke="#C0BEFF" stroke-linecap="round" stroke-linejoin="round" stroke-width="1.25" d="M7.617 4.375v3.797a.996.996 0 0 0 .985.984h3.8"/><path stroke="#C0BEFF" stroke-linejoin="round" stroke-width="1.25" d="M6.773 4.375V2.547A1.556 1.556 0 0 1 8.32 1h3.307a.874.874 0 0 1 .62.259l3.84 3.902a.882.882 0 0 1 .254.62v6.047c0 .854-.67 1.547-1.511 1.547h-2.148"/><path stroke="#C0BEFF" stroke-linecap="round" stroke-linejoin="round" stroke-width="1.25" d="M11.557 1v3.797a.996.996 0 0 0 .985.984h3.8"/></svg>