<svg xmlns="http://www.w3.org/2000/svg" width="17" height="17" fill="none"><path fill="#5855D6" d="M7.083 9.208h-4.25a.708.708 0 0 0-.708.709v4.25a.708.708 0 0 0 .708.708h4.25a.708.708 0 0 0 .709-.708v-4.25a.708.708 0 0 0-.709-.709Zm-.708 4.25H3.542v-2.833h2.833v2.833Zm7.792-11.333h-4.25a.708.708 0 0 0-.709.708v4.25a.708.708 0 0 0 .709.709h4.25a.708.708 0 0 0 .708-.709v-4.25a.708.708 0 0 0-.708-.708Zm-.709 4.25h-2.833V3.542h2.833v2.833Zm.709 4.958H12.75V9.917a.708.708 0 1 0-1.417 0v1.416H9.917a.709.709 0 0 0 0 1.417h1.416v1.417a.708.708 0 0 0 1.417 0V12.75h1.417a.708.708 0 1 0 0-1.417ZM7.083 2.125h-4.25a.708.708 0 0 0-.708.708v4.25a.708.708 0 0 0 .708.709h4.25a.708.708 0 0 0 .709-.709v-4.25a.708.708 0 0 0-.709-.708Zm-.708 4.25H3.542V3.542h2.833v2.833Z"/></svg>