<svg xmlns="http://www.w3.org/2000/svg" xml:space="preserve" width="800" height="800" viewBox="0 0 512 512"><path d="m475.864 321.018-8.626-60.379a8.625 8.625 0 0 0-9.545-7.347c-.9.106-90.325 9.84-122.886-52.567-16.642-31.896-12.297-75.374 2.011-94.445 3.39-4.518 8.174-8.774 14.15-8.737 5.71.037 10.503 3.469 13.47 8.156 13.539 21.378 4.328 74.88-.362 93.688a8.626 8.626 0 0 0 6.275 10.461l69.004 17.251c4.621 1.154 9.305-1.655 10.46-6.276.43-1.721 10.517-42.66 9.148-89.022-1.871-63.47-24.696-105.936-66.009-122.807-38.193-15.596-75.627-10.797-105.406 13.515-40.152 32.78-61.521 97.838-50.809 154.694 4.18 22.188 22.668 95.615 88.233 135.397-26.683 50.976-56.818 86.519-72.544 101.172-32.547-36.244-59.15-76.904-79.144-120.973-28.558-62.948-43.205-133.263-42.358-203.344.058-4.736-3.888-8.73-8.624-8.73h-77.63c-4.86 0-8.855 4.197-8.615 9.054 7.069 142.097 59.006 249.195 89.335 300.388C168.568 463.038 219.32 512 251.685 512c28.323 0 60.255-23.595 94.91-70.131 27.174-36.49 50.457-79.685 63.245-105.058 18.794.532 38.725-1.533 59.367-6.155a8.628 8.628 0 0 0 6.657-9.638z" style="fill:#28ac87"/><path d="M151.272 390.167c-30.33-51.193-82.267-158.292-89.335-300.388-.24-4.857 3.754-9.054 8.615-9.054H44.675c-4.86 0-8.855 4.197-8.615 9.054 7.069 142.097 59.006 249.195 89.335 300.388C168.57 463.038 219.322 512 251.687 512c4.609 0 9.316-.636 14.112-1.884-32.089-9.611-76.281-55.394-114.527-119.949zM313.427 22.508c14.772-12.06 31.428-19.311 49.125-21.661-27.298-3.462-53.201 3.864-75.001 21.661-40.152 32.78-61.521 97.838-50.808 154.694 4.18 22.188 22.668 95.615 88.233 135.397h25.875c-65.566-39.782-84.053-113.209-88.233-135.397-10.713-56.857 10.657-121.914 50.809-154.694z" style="fill:#179975"/></svg>