<svg xmlns="http://www.w3.org/2000/svg" width="800" height="800" fill="none" viewBox="0 0 32 32"><circle cx="16" cy="16" r="14" fill="url(#a)"/><path fill="#fff" fill-rule="evenodd" d="M11.492 15.75a20.738 20.738 0 0 1-.845-2.475c-.41.089-.795.19-1.151.304-.853.272-1.517.6-1.966.959-.45.358-.642.71-.658 1.036-.014.277.097.584.385.917.29.335.739.673 1.342.993a.428.428 0 0 1 .177.582.438.438 0 0 1-.589.176c-.66-.35-1.21-.749-1.592-1.193-.385-.446-.62-.96-.593-1.517.033-.658.42-1.217.982-1.664.56-.448 1.334-.818 2.245-1.108a13.6 13.6 0 0 1 1.217-.323 13.109 13.109 0 0 1-.198-1.177c-.11-.939-.091-1.788.088-2.48.178-.69.531-1.27 1.123-1.573.522-.266 1.118-.258 1.711-.076.591.18 1.213.54 1.835 1.028.188.148.22.418.07.604a.439.439 0 0 1-.611.07c-.572-.449-1.098-.742-1.55-.88-.451-.138-.796-.114-1.056.019-.292.15-.536.47-.68 1.022-.142.552-.17 1.287-.065 2.166.042.353.104.726.187 1.114a21.53 21.53 0 0 1 2.663-.263c1.092-1.368 2.239-2.492 3.32-3.28.77-.56 1.527-.964 2.222-1.152.695-.188 1.38-.173 1.939.186.497.32.785.841.918 1.448.133.604.121 1.324-.005 2.11a.435.435 0 0 1-.498.357.431.431 0 0 1-.362-.492c.116-.723.116-1.329.015-1.793-.102-.461-.295-.75-.542-.908-.276-.178-.679-.229-1.235-.078-.556.15-1.215.491-1.936 1.016-.864.629-1.79 1.503-2.698 2.568.36.002.726.012 1.096.03 2.68.13 5.104.651 6.863 1.405.877.376 1.61.819 2.125 1.318.514.5.845 1.093.813 1.75-.027.552-.305 1.035-.723 1.439-.416.401-.99.743-1.666 1.027a.437.437 0 0 1-.571-.228.429.429 0 0 1 .23-.564c.617-.259 1.086-.55 1.399-.851.31-.3.448-.59.461-.864.017-.326-.141-.695-.553-1.095-.411-.399-1.04-.79-1.862-1.143-1.64-.702-3.956-1.209-6.558-1.334-.6-.03-1.187-.036-1.756-.024a24.547 24.547 0 0 0-1.944 2.94c.233.54.493 1.088.782 1.64 1.196 2.289 2.624 4.163 3.95 5.346.665.592 1.287.995 1.825 1.2.54.204.944.192 1.237.043.282-.144.518-.446.664-.962.145-.517.185-1.206.103-2.033-.164-1.652-.802-3.767-1.886-5.963a.428.428 0 0 1 .2-.575.438.438 0 0 1 .582.198c1.116 2.261 1.794 4.476 1.97 6.256.088.889.053 1.692-.13 2.347-.185.656-.534 1.206-1.103 1.497-.592.302-1.276.25-1.948-.005-.674-.255-1.386-.731-2.096-1.364-1.423-1.269-2.91-3.233-4.142-5.59-.185-.355-.36-.71-.524-1.063-.653 1.308-1.109 2.551-1.347 3.627-.192.865-.239 1.599-.152 2.162.088.564.298.907.575 1.084.26.167.63.222 1.136.103.508-.12 1.112-.407 1.777-.86a.438.438 0 0 1 .605.11.427.427 0 0 1-.111.6c-.717.487-1.42.834-2.07.987-.65.153-1.287.119-1.811-.218-.56-.36-.852-.972-.961-1.676-.109-.705-.043-1.552.161-2.476.296-1.334.893-2.875 1.75-4.465Zm.553-.972a19.215 19.215 0 0 1-.54-1.665c.558-.09 1.152-.159 1.774-.203a25.731 25.731 0 0 0-1.234 1.868Z" clip-rule="evenodd"/><path fill="#fff" d="M16.04 17.218c.687 0 1.244-.55 1.244-1.23 0-.679-.557-1.23-1.244-1.23-.687 0-1.243.551-1.243 1.23 0 .68.556 1.23 1.243 1.23Z"/><defs><linearGradient id="a" x1="16" x2="16" y1="2" y2="30" gradientUnits="userSpaceOnUse"><stop stop-color="#B2E299"/><stop offset="1" stop-color="#03A171"/></linearGradient></defs></svg>