<svg xmlns="http://www.w3.org/2000/svg" width="32" height="31" fill="none"><path fill="#5855D6" d="M16.17.063C7.583.063.596 6.987.596 15.5S7.582 30.938 16.17 30.938c8.588 0 15.576-6.926 15.576-15.438S24.759.062 16.17.062Zm0 24.937c-1.565 0-2.81-.658-2.976-2.047a.296.296 0 0 1 .3-.328h5.35a.302.302 0 0 1 .288.208c.013.04.017.083.012.125C18.953 24.32 17.719 25 16.17 25Zm7.34-3.563H8.831c-.887 0-1.348-1.113-.838-1.707 1.223-1.435 2.087-2.038 2.087-5.996 0-3.627 1.928-4.914 3.52-5.542a.851.851 0 0 0 .474-.496C14.35 6.786 15.133 6 16.17 6s1.818.787 2.096 1.697a.844.844 0 0 0 .475.495c1.588.627 3.52 1.916 3.52 5.542 0 3.958.863 4.562 2.086 5.997.505.593.043 1.706-.839 1.706Z"/></svg>