<svg xmlns="http://www.w3.org/2000/svg" width="25" height="24" fill="none"><path fill="#5855D6" fill-rule="evenodd" d="m16.472 14.899 5.428 5.38a1.004 1.004 0 0 1 0 1.427 1.022 1.022 0 0 1-1.44-.001l-5.428-5.38a8.123 8.123 0 0 1-11-1.036 7.957 7.957 0 0 1-2.01-5.541 7.966 7.966 0 0 1 2.36-5.405 8.107 8.107 0 0 1 5.452-2.339 8.116 8.116 0 0 1 5.59 1.993A7.95 7.95 0 0 1 16.47 14.9h.002ZM10.09 16a6.082 6.082 0 0 0 4.28-1.757A5.973 5.973 0 0 0 16.145 10a5.973 5.973 0 0 0-1.773-4.243A6.081 6.081 0 0 0 10.09 4a6.082 6.082 0 0 0-4.28 1.757A5.973 5.973 0 0 0 4.035 10c0 1.591.638 3.117 1.773 4.243A6.082 6.082 0 0 0 10.09 16Z" clip-rule="evenodd"/></svg>