<svg xmlns="http://www.w3.org/2000/svg" width="800" height="800" fill="none" viewBox="0 0 32 32"><path fill="#FFCC80" d="m23.3 8.4-1.48-2A1 1 0 0 0 21 6h-9.8a1 1 0 0 0-.76.35l-1.72 2A1 1 0 0 0 8.5 9v7.29a6.58 6.58 0 0 0 6.57 6.57h1.86a6.58 6.58 0 0 0 6.57-6.57V9a1 1 0 0 0-.2-.6Z"/><path fill="#01579B" d="m29.78 28.38-4-5a1 1 0 0 0-1-.36L16 25l-8.78-2a1 1 0 0 0-1 .36l-4 5a1 1 0 0 0-.12 1.05A1 1 0 0 0 3 30h26a1 1 0 0 0 .78-1.62ZM29.29 6l-13-4a1.14 1.14 0 0 0-.58 0l-13 4A1 1 0 0 0 2 7a1 1 0 0 0 .73 1l13 3.6a.93.93 0 0 0 .54 0l13-3.6A1 1 0 0 0 30 7a1 1 0 0 0-.71-1Z"/><path fill="#FFE0B2" d="M11.22 6a1 1 0 0 0-.76.35l-1.72 2A1 1 0 0 0 8.5 9v7.29a6.58 6.58 0 0 0 6.57 6.57H16V6h-4.78Z"/><path fill="#0277BD" d="M7.22 23a1 1 0 0 0-1 .36l-4 5a1 1 0 0 0-.12 1.05A1 1 0 0 0 3 30h13v-5l-8.78-2ZM15.71 2l-13 4A1 1 0 0 0 2 7a1 1 0 0 0 .73 1l13 3.6c.09.015.18.015.27 0V2a.92.92 0 0 0-.29 0Z"/></svg>