<svg width="0" height="0" class="hidden">
  <symbol fill="none" xmlns="http://www.w3.org/2000/svg" viewBox="0 0 24 24" id="notifications">
    <path d="M19.8216 16.1988L19.8223 16.1996C19.846 16.2282 19.8842 16.2746 19.9243 16.3233C19.9706 16.3796 20.0196 16.4391 20.0516 16.4777C20.1609 16.6099 20.2301 16.7707 20.251 16.9411C20.2718 17.1116 20.2434 17.2845 20.169 17.4394L20.1684 17.4406C20.0084 17.7751 19.6668 17.9986 19.2423 17.9986H4.76311C4.33315 17.9986 3.98977 17.7729 3.83145 17.4394L3.83042 17.4372C3.75634 17.2824 3.72817 17.1096 3.74922 16.9393C3.77027 16.769 3.83966 16.6083 3.9492 16.4762L3.94922 16.4762L3.95359 16.4709C4.01944 16.39 4.08421 16.3119 4.15045 16.232L4.17847 16.1982L4.17863 16.198L4.2015 16.1704C4.70562 15.562 5.19136 14.9758 5.52082 14.067C5.84952 13.1603 6.00623 11.9869 6.00623 10.1883C6.00623 8.68323 6.30755 7.50618 6.86752 6.59621C7.4233 5.69306 8.27011 4.99377 9.46893 4.50025L9.51026 4.48324L9.54928 4.46143C9.63647 4.41271 9.71489 4.34977 9.78132 4.27522L9.89223 4.15077L9.93997 3.99106C10.2694 2.88899 11.1303 2.25 12.0001 2.25C12.8699 2.25 13.7312 2.88894 14.0607 3.99226L14.1062 4.14473L14.2098 4.26557C14.2785 4.34577 14.3609 4.41313 14.4532 4.46448L14.4917 4.48589L14.5324 4.50265C15.5633 4.92677 16.3071 5.48318 16.8494 6.19219L16.8498 6.19273C17.5856 7.15303 17.9945 8.47815 17.9945 10.1897C17.9945 11.9878 18.1515 13.1608 18.4803 14.0674C18.8094 14.9747 19.2941 15.5609 19.7968 16.1687L19.8216 16.1988Z" stroke="#9592A6" stroke-width="1.5"></path>
    <path d="M11.9999 22.5C12.6773 22.4995 13.3419 22.3156 13.9232 21.9679C14.5045 21.6202 14.9809 21.1217 15.3018 20.5252C15.3169 20.4966 15.3244 20.4646 15.3235 20.4322C15.3226 20.3999 15.3133 20.3684 15.2966 20.3407C15.2799 20.313 15.2563 20.2901 15.2282 20.2742C15.2 20.2583 15.1682 20.25 15.1359 20.25H8.86492C8.83254 20.2499 8.80068 20.2582 8.77245 20.274C8.74422 20.2899 8.72057 20.3128 8.70382 20.3405C8.68706 20.3682 8.67777 20.3997 8.67684 20.4321C8.67591 20.4645 8.68337 20.4965 8.69851 20.5252C9.01939 21.1216 9.49569 21.6201 10.0769 21.9678C10.6581 22.3155 11.3226 22.4994 11.9999 22.5Z" fill="#9592A6"></path>
  </symbol>


  <symbol fill="none" xmlns="http://www.w3.org/2000/svg" viewBox="0 0 25 25" id="settings">
    <path d="M19.0522 7.37305C18.8337 7.04539 18.5262 6.78686 18.1659 6.62781C17.8056 6.46876 17.4074 6.41578 17.018 6.4751C16.3931 6.56412 15.7563 6.44255 15.2082 6.12956C14.66 5.81658 14.2317 5.33 13.9907 4.74658C13.6821 4 12.9912 3.48828 12.184 3.44775C11.888 3.43286 11.5914 3.43286 11.2954 3.44775C10.4829 3.49072 9.78902 4.00879 9.48384 4.76269C9.24773 5.34677 8.82417 5.83579 8.27977 6.15285C7.73538 6.4699 7.10104 6.597 6.47652 6.51416C5.67036 6.40723 4.87739 6.75488 4.43941 7.44189C4.26532 7.71426 4.10655 7.99611 3.96382 8.28613C3.61714 8.99219 3.75142 9.80469 4.23579 10.4243C4.62487 10.9212 4.83738 11.5334 4.83977 12.1645C4.84216 12.7955 4.63429 13.4094 4.24898 13.9092C3.76753 14.5347 3.63862 15.3491 3.99068 16.0576C4.0688 16.2139 4.1523 16.3687 4.24116 16.522C4.31766 16.6522 4.39709 16.7801 4.47945 16.9058C4.69802 17.2334 5.00549 17.4919 5.36579 17.6509C5.72609 17.81 6.12427 17.863 6.51362 17.8037C7.13856 17.7145 7.7754 17.836 8.3236 18.149C8.8718 18.462 9.30013 18.9487 9.54097 19.5322C9.84956 20.2788 10.541 20.7905 11.3476 20.8306C11.6436 20.8459 11.9403 20.8459 12.2363 20.8306C13.0488 20.7881 13.7426 20.27 14.0478 19.5161C14.2838 18.932 14.7072 18.443 15.2515 18.1259C15.7959 17.8088 16.4302 17.6817 17.0546 17.7646C17.8613 17.8716 18.6543 17.5239 19.0922 16.8369C19.2662 16.5644 19.4248 16.2824 19.5673 15.9922C19.9145 15.2866 19.7802 14.4741 19.2954 13.8545C18.9065 13.3575 18.6941 12.7451 18.6918 12.114C18.6895 11.4829 18.8974 10.869 19.2827 10.3691C19.7641 9.74414 19.893 8.92969 19.5405 8.22314C19.463 8.06689 19.3795 7.91211 19.29 7.75879C19.2138 7.6276 19.1346 7.49902 19.0522 7.37305Z" stroke="#9592A6" stroke-width="1.32624" stroke-linecap="round" stroke-linejoin="round"></path>
    <path d="M11.7666 14.4844C13.0616 14.4844 14.1113 13.4346 14.1113 12.1396C14.1113 10.8447 13.0616 9.79492 11.7666 9.79492C10.4716 9.79492 9.42188 10.8447 9.42188 12.1396C9.42188 13.4346 10.4716 14.4844 11.7666 14.4844Z" stroke="#9592A6" stroke-width="1.5" stroke-linecap="round" stroke-linejoin="round"></path>
  </symbol>

  <symbol  xmlns="http://www.w3.org/2000/svg" viewBox="0 0 25 24" id="courses">
    <path d="M17.4166 2C17.7778 2 18.1354 2.06829 18.469 2.20096C18.8027 2.33363 19.1058 2.52809 19.3612 2.77324C19.6165 3.01838 19.8191 3.30942 19.9573 3.62972C20.0955 3.95002 20.1666 4.29331 20.1666 4.64V18.56C20.1666 18.9067 20.0955 19.25 19.9573 19.5703C19.8191 19.8906 19.6165 20.1816 19.3612 20.4268C19.1058 20.6719 18.8027 20.8664 18.469 20.999C18.1354 21.1317 17.7778 21.2 17.4166 21.2H6.91663C6.55541 21.2 6.19773 21.1317 5.86402 20.999C5.53031 20.8662 5.2271 20.6717 4.97173 20.4264C4.71635 20.1812 4.51381 19.89 4.37567 19.5696C4.23753 19.2492 4.16649 18.9058 4.16663 18.559V4.64C4.16663 3.4304 5.01263 2.4128 6.16663 2.09888V3.68C5.86263 3.89888 5.66663 4.2464 5.66663 4.64V18.5581C5.66663 19.2205 6.22663 19.7581 6.91663 19.7581H17.4166C18.1066 19.7581 18.6666 19.2205 18.6666 18.5581V4.64C18.6666 3.9776 18.1066 3.44 17.4166 3.44H15.1666V2H17.4166ZM14.1666 2V9.81344C14.1666 10.5306 13.3666 10.7994 12.8766 10.5469L12.7946 10.497L10.6686 9.26336L8.59063 10.4643C8.09063 10.8099 7.26063 10.5987 7.17363 9.92864L7.16663 9.8144V2H14.1666ZM12.6666 3.44H8.66663V8.74208L10.2396 7.83104C10.3649 7.76708 10.5039 7.73173 10.6458 7.72773C10.7877 7.72374 10.9286 7.7512 11.0576 7.808L12.6676 8.74304V3.44H12.6666Z" fill="#9592A6"></path>
  </symbol>


  <symbol xmlns="http://www.w3.org/2000/svg" viewBox="0 0 32 32" id="mobile-dashboard">
    <path d="M5 5v22h22V5Zm2 2h8v8H7Zm10 0h8v8h-8ZM7 17h8v8H7Zm10 0h8v8h-8Z" fill="#9592A6"></path>
  </symbol>

</svg>